<svg width="100" height="100" viewBox="0 0 100 100" fill="none" xmlns="http://www.w3.org/2000/svg">
<path d="M50 0L67.0458 26.5385L97.5528 34.5491L77.5806 58.9615L79.3893 90.4509L50 79L20.6107 90.4509L22.4194 58.9615L2.44717 34.5491L32.9542 26.5385L50 0Z" fill="black"/>
<path d="M27.1562 56V39.1953H36.3555C39.0742 39.1953 40.4336 40.5586 40.4336 43.2852V45.6758C40.4336 48.4023 39.0742 49.7656 36.3555 49.7656H29.5586V56H27.1562ZM29.5586 47.3633H36.2266C36.8672 47.3633 37.3281 47.2227 37.6094 46.9414C37.8906 46.6602 38.0312 46.1992 38.0312 45.5586V43.4023C38.0312 42.7617 37.8906 42.3008 37.6094 42.0195C37.3281 41.7383 36.8672 41.5977 36.2266 41.5977H29.5586V47.3633ZM45.8594 38.7148V56H43.5625V38.7148H45.8594ZM49.7031 50.5508C49.7031 50.2305 49.7617 49.9336 49.8789 49.6602C50.0039 49.3789 50.168 49.1328 50.3711 48.9219C50.582 48.7109 50.8281 48.5469 51.1094 48.4297C51.3906 48.3047 51.6875 48.2422 52 48.2422H57.9531V45.8281H50.418V43.5195H57.9531C58.2734 43.5195 58.5742 43.582 58.8555 43.707C59.1367 43.8242 59.3789 43.9883 59.582 44.1992C59.793 44.4023 59.957 44.6445 60.0742 44.9258C60.1992 45.207 60.2617 45.5078 60.2617 45.8281V56H57.9531V53.8906C57.9297 54.1797 57.8516 54.4531 57.7188 54.7109C57.5859 54.9688 57.4141 55.1953 57.2031 55.3906C57 55.5781 56.7656 55.7266 56.5 55.8359C56.2344 55.9453 55.9531 56 55.6562 56H52C51.6875 56 51.3906 55.9414 51.1094 55.8242C50.8281 55.6992 50.582 55.5352 50.3711 55.332C50.168 55.1211 50.0039 54.875 49.8789 54.5938C49.7617 54.3125 49.7031 54.0117 49.7031 53.6914V50.5508ZM52 53.6914H57.9531V50.5508H52V53.6914ZM64.9609 61.0391L67.5742 54.875L62.6758 43.5195H65.1016L68.7461 52.1094L72.3906 43.5195H74.8164L67.2578 61.0391H64.9609Z" fill="white"/>
</svg>
